<svg width="92" height="86" viewBox="0 0 92 86" fill="none" xmlns="http://www.w3.org/2000/svg">
<path d="M91.0119 80.0319C91.6219 81.2519 91.4999 82.5939 90.8898 83.6919C90.1579 84.7899 89.1818 85.3999 87.9618 85.3999H60.3898C58.4379 85.3999 56.9738 83.6919 56.9738 81.6179V72.8339L38.5518 30.6219L36.9658 26.9619C36.4779 25.8639 34.7699 25.6199 34.1598 26.9619L32.4518 30.4999L27.8158 39.8939C26.5958 42.3339 26.5958 45.1399 27.6938 47.7019L41.8459 80.0319C42.3338 81.2519 42.3338 82.4719 41.6019 83.6919C40.9919 84.7899 39.8939 85.3999 38.6738 85.3999H11.1018C7.44185 85.3999 4.26985 83.5699 2.31785 80.1539C0.365848 76.8599 -0.000152111 72.9559 1.46385 69.2959C1.46385 69.1739 1.46385 69.0519 1.58585 68.9299L4.14785 63.6839L27.2058 16.7139L28.1818 14.5179L29.1579 12.1999C29.6458 11.1019 29.5238 9.8819 29.0358 8.7839L27.5718 5.7339C26.9618 4.5139 26.9618 3.1719 27.5718 1.9519C28.1818 0.731902 29.2798 -0.000103474 30.4998 -0.000103474H60.5119C61.8539 -0.000103474 62.9519 0.731902 63.5619 1.9519C64.1719 3.1719 64.1719 4.5139 63.5619 5.7339L62.0978 8.7839C61.4878 9.8819 61.4878 11.1019 61.9758 12.1999L62.9519 14.5179L91.0119 80.0319Z" fill="white"/>
</svg>
