<svg width="1123" height="250" viewBox="0 0 1123 250" fill="none" xmlns="http://www.w3.org/2000/svg">
<path d="M195.414 178.179C196.428 180.713 196.259 183.248 194.907 185.782C193.555 188.148 191.527 189.331 188.824 189.331H131.543C129.515 189.331 127.741 188.57 126.221 187.05C124.869 185.529 124.193 183.67 124.193 181.474V163.225L85.9212 75.5295L82.6263 67.9259C82.1194 66.7431 81.19 66.1517 79.8383 66.1517C78.6555 65.9827 77.6417 66.5741 76.7968 67.9259L73.2485 75.2761L63.6172 94.7921C61.0826 100.03 60.9981 105.437 63.3637 111.013L92.7645 178.179C93.7783 180.713 93.6093 183.248 92.2576 185.782C90.9058 188.148 88.8782 189.331 86.1747 189.331H28.8939C20.9523 189.331 14.8694 185.613 10.6451 178.179C6.42086 171.082 5.91395 163.563 9.12438 155.621V154.861L14.4469 143.962L62.3499 46.1288L64.3775 41.5666L66.4052 36.7509C67.419 34.3853 67.419 32.0198 66.4052 29.6542L63.3637 23.3178C62.012 20.7833 62.012 18.1642 63.3637 15.4607C64.7155 12.7572 66.7431 11.4054 69.4466 11.4054H131.797C134.5 11.4054 136.528 12.7572 137.879 15.4607C139.231 18.1642 139.231 20.7833 137.879 23.3178L134.838 29.6542C133.824 32.0198 133.824 34.3853 134.838 36.7509L136.866 41.5666L195.16 177.418L195.414 178.179ZM290.657 87.1884C289.812 85.1608 288.376 83.809 286.349 83.1332C284.321 82.4573 282.293 82.5418 280.266 83.3866C278.576 84.2315 277.055 85.4987 275.703 87.1884C274.521 88.7092 273.507 90.4834 272.662 92.511C271.817 94.5386 271.141 96.5663 270.634 98.5939C270.296 100.453 270.127 102.058 270.127 103.41V160.944C270.127 161.789 270.381 162.971 270.888 164.492C271.564 166.013 272.24 167.618 272.915 169.308C273.76 170.829 274.605 172.434 275.45 174.123C276.295 175.644 276.971 176.911 277.478 177.925C278.829 180.46 278.829 182.994 277.478 185.529C276.126 188.063 274.098 189.331 271.395 189.331H217.155C214.452 189.331 212.424 188.063 211.072 185.529C209.721 182.994 209.721 180.46 211.072 177.925C211.579 176.911 212.255 175.644 213.1 174.123C213.945 172.434 214.705 170.829 215.381 169.308C216.226 167.618 216.902 166.013 217.409 164.492C218.085 162.971 218.423 161.789 218.423 160.944V84.9074C218.423 84.0625 218.085 82.8797 217.409 81.359C216.902 79.8383 216.226 78.3175 215.381 76.7968C214.705 75.1071 213.945 73.5019 213.1 71.9812C212.255 70.2915 211.579 68.9397 211.072 67.9259C209.721 65.3913 209.721 62.8568 211.072 60.3222C212.424 57.7877 214.452 56.5204 217.155 56.5204H260.75C263.453 56.6894 265.734 57.7032 267.593 59.5619C269.452 61.4205 270.381 63.7016 270.381 66.4052C275.788 63.0258 281.786 60.0688 288.376 57.5342C294.966 54.9997 301.471 53.9014 307.892 54.2393C310.934 54.4083 313.891 55.1686 316.763 56.5204C319.805 57.7032 322.424 59.3084 324.62 61.3361C326.986 63.3637 328.845 65.8138 330.196 68.6862C331.548 71.3898 332.224 74.4312 332.224 77.8106C332.224 83.7246 330.45 88.4557 326.901 92.0041C323.522 95.5525 319.551 97.8335 314.989 98.8474C310.427 99.8612 305.78 99.4388 301.049 97.5801C296.487 95.5525 293.023 91.8351 290.657 86.4281V86.6815V87.1884ZM448.841 179.193C448.841 181.558 447.743 183.248 445.546 184.262C438.28 187.641 431.099 189.838 424.002 190.851C417.075 192.034 410.569 192.626 404.486 192.626C397.727 192.626 391.814 191.781 386.744 190.091C381.844 188.57 377.705 185.951 374.325 182.234C371.115 178.517 368.665 173.617 366.975 167.534C365.454 161.282 364.694 153.678 364.694 144.723V100.622V80.8521C364.694 79.3313 364.102 78.0641 362.92 77.0503C361.906 75.8675 360.639 75.2761 359.118 75.2761H352.275C350.754 75.2761 349.402 74.7692 348.219 73.7553C347.205 72.5725 346.699 71.2208 346.699 69.7001V62.0964C346.699 60.5757 347.205 59.3084 348.219 58.2946C349.233 57.1118 350.5 56.4359 352.021 56.267C356.583 55.929 361.145 54.7462 365.708 52.7186C370.439 50.6909 374.832 48.0719 378.887 44.8615C383.112 41.6511 386.829 38.0182 390.039 33.9629C393.419 29.7387 396.038 25.3455 397.896 20.7833C398.741 18.5867 400.431 17.4883 402.966 17.4883H410.823C412.343 17.4883 413.611 18.0797 414.624 19.2625C415.807 20.2764 416.399 21.5436 416.399 23.0644V50.9444C416.399 52.4651 416.906 53.8169 417.919 54.9997C419.102 56.0135 420.454 56.5204 421.975 56.5204H443.011C444.532 56.5204 445.799 57.1118 446.813 58.2946C447.996 59.3084 448.587 60.5757 448.587 62.0964V69.4466C448.587 70.9673 447.996 72.3191 446.813 73.5019C445.799 74.5157 444.532 75.0226 443.011 75.0226H421.975C420.454 75.0226 419.102 75.614 417.919 76.7968C416.906 77.8106 416.399 79.0779 416.399 80.5986V146.497C416.399 151.566 418.173 155.959 421.721 159.677C425.439 163.225 429.832 164.999 434.901 164.999C437.266 164.999 439.21 164.661 440.73 163.985C442.589 163.478 444.279 163.732 445.799 164.746C447.32 165.759 448.081 167.196 448.081 169.054V178.686L448.841 179.193ZM516.515 55.2531C526.147 53.0565 536.116 52.8031 546.423 54.4928C556.73 56.0135 566.108 59.4774 574.556 64.8844C583.174 70.1225 590.271 77.3882 595.847 86.6815C601.592 95.8059 604.633 106.873 604.971 119.884V123.686C604.971 125.545 604.295 127.15 602.943 128.502C601.592 129.853 599.986 130.529 598.128 130.529H520.571C518.881 130.529 517.529 131.205 516.515 132.557C515.501 133.909 515.079 135.345 515.248 136.866C516.262 144.469 519.81 150.637 525.893 155.368C533.328 161.113 541.523 162.971 550.478 160.944L590.271 152.326C592.805 151.819 594.748 152.664 596.1 154.861C597.452 157.058 597.452 159.254 596.1 161.451C592.721 166.858 588.75 171.504 584.188 175.391C579.626 179.108 574.641 182.15 569.234 184.515C563.996 186.881 558.335 188.655 552.252 189.838C546.338 191.02 540.34 191.612 534.257 191.612H534.004H533.243H528.681H528.428H527.667C519.388 190.936 511.277 189.077 503.336 186.036C495.563 182.825 488.635 178.348 482.552 172.603C476.469 166.858 471.569 159.846 467.852 151.566C464.135 143.286 462.276 133.74 462.276 122.926C462.276 113.294 463.797 104.677 466.838 97.0732C469.88 89.4695 473.85 82.8797 478.751 77.3037C483.82 71.7277 489.565 67.1655 495.985 63.6171C502.575 59.8998 509.419 57.2808 516.515 55.76V55.2531ZM545.663 114.055C547.521 114.055 549.126 113.379 550.478 112.027C551.83 110.675 552.506 109.07 552.506 107.211V92.511C552.506 87.2729 550.647 82.7952 546.93 79.0779C543.381 75.3606 538.988 73.5019 533.75 73.5019C528.512 73.5019 524.034 75.3606 520.317 79.0779C516.769 82.7952 514.995 87.2729 514.995 92.511V107.211C514.995 109.07 515.67 110.675 517.022 112.027C518.374 113.379 519.979 114.055 521.838 114.055H545.663ZM678.762 67.419C687.379 62.0119 695.152 58.4636 702.08 56.7739C709.008 55.0842 716.104 54.2393 723.37 54.2393C730.805 54.2393 737.31 55.5066 742.886 58.0411C748.631 60.5757 753.193 64.9689 756.573 71.2208C758.6 69.7001 761.05 68.0104 763.923 66.1517C766.964 64.1241 770.513 62.2654 774.568 60.5757C778.792 58.717 783.608 57.1963 789.015 56.0135C794.422 54.8307 800.674 54.2393 807.771 54.2393C813.685 54.2393 819.007 55.0842 823.738 56.7739C828.638 58.2946 832.778 60.9136 836.158 64.631C839.706 68.3483 842.409 73.3329 844.268 79.5848C846.296 85.6677 847.31 93.1869 847.31 102.142C847.31 104.677 847.31 107.972 847.31 112.027C847.31 115.913 847.31 119.969 847.31 124.193C847.478 128.248 847.563 132.303 847.563 136.359C847.563 140.245 847.563 143.54 847.563 146.243V161.704C847.563 163.056 847.816 164.323 848.323 165.506L854.913 178.686C856.265 181.22 856.265 183.755 854.913 186.289C853.561 188.824 851.534 190.091 848.83 190.091H794.591C791.887 190.091 789.86 188.824 788.508 186.289C787.156 183.755 787.156 181.22 788.508 178.686C789.353 176.996 789.944 175.813 790.282 175.137C790.789 174.292 791.212 173.532 791.549 172.856C791.887 172.18 792.31 171.335 792.817 170.322C793.324 169.308 794.084 167.787 795.098 165.759C795.605 164.577 795.858 163.309 795.858 161.958C795.858 150.975 795.858 140.076 795.858 129.262C795.858 118.448 795.774 107.549 795.605 96.5663C795.605 93.1869 794.675 90.1454 792.817 87.4419C791.634 85.7522 790.451 84.4849 789.268 83.6401C786.227 81.4435 783.016 80.3452 779.637 80.3452C775.413 80.3452 771.695 81.7814 768.485 84.6539C765.444 87.5264 763.754 90.9903 763.416 95.0456V133.064V145.99V161.451C763.416 162.802 763.669 164.07 764.176 165.253L770.766 178.432C772.118 180.967 772.118 183.501 770.766 186.036C769.414 188.57 767.387 189.838 764.683 189.838H710.19C707.487 189.838 705.459 188.57 704.108 186.036C702.756 183.501 702.756 180.967 704.108 178.432L710.697 165.253C711.204 164.07 711.458 162.802 711.458 161.451V119.377V95.8059C711.458 92.4265 710.528 89.3851 708.67 86.6815C707.487 84.9918 706.304 83.7246 705.121 82.8797C702.08 80.6831 698.869 79.5848 695.49 79.5848C691.266 79.5848 687.548 81.021 684.338 83.8935C681.297 86.766 679.607 90.2299 679.269 94.2852V160.944C679.269 162.296 679.522 163.563 680.029 164.746C681.212 167.111 682.057 168.801 682.564 169.815C683.071 170.66 683.409 171.42 683.578 172.096C683.916 172.603 684.254 173.194 684.591 173.87C684.929 174.546 685.605 175.898 686.619 177.925C687.971 180.46 687.971 182.994 686.619 185.529C685.267 188.063 683.24 189.331 680.536 189.331H626.297C623.593 189.331 621.566 188.063 620.214 185.529C618.862 182.994 618.862 180.46 620.214 177.925L626.804 164.746C627.311 163.563 627.564 162.296 627.564 160.944V84.9074C627.564 83.7246 627.311 82.4573 626.804 81.1055L620.214 67.9259C619.707 66.7431 619.454 65.4758 619.454 64.1241C619.454 62.0964 620.045 60.3222 621.228 58.8015C622.58 57.2808 624.269 56.5204 626.297 56.5204H669.638C672.341 56.5204 674.622 57.4497 676.481 59.3084C678.34 61.1671 679.269 63.4482 679.269 66.1517L678.762 67.419ZM878.037 160.69V84.6539C878.037 83.4711 877.784 82.2038 877.277 80.8521L870.687 67.6724C869.335 65.1379 869.335 62.6033 870.687 60.0688C872.039 57.5342 874.066 56.267 876.77 56.267H920.11C922.814 56.267 925.095 57.1963 926.954 59.055C928.812 60.9136 929.742 63.1947 929.742 65.8982V160.437C929.742 161.789 929.995 163.056 930.502 164.239L937.092 177.418C938.444 179.953 938.444 182.487 937.092 185.022C935.74 187.557 933.713 188.824 931.009 188.824H876.77C874.066 188.824 872.039 187.557 870.687 185.022C869.335 182.487 869.335 179.953 870.687 177.418L877.277 164.239C877.784 163.056 878.037 161.789 878.037 160.437V160.69ZM905.157 -3.78305e-05C908.705 -3.78305e-05 912.084 0.675843 915.295 2.02761C918.505 3.2104 921.293 4.9001 923.659 7.09671C926.024 9.29331 927.883 11.9123 929.235 14.9538C930.587 17.8263 931.262 20.8678 931.262 24.0782C931.262 27.4576 930.587 30.5835 929.235 33.456C927.883 36.3285 926.024 38.8631 923.659 41.0597C921.293 43.2563 918.505 45.0304 915.295 46.3822C912.084 47.565 908.705 48.1564 905.157 48.1564C901.608 48.1564 898.229 47.565 895.018 46.3822C891.808 45.0304 889.02 43.2563 886.654 41.0597C884.289 38.8631 882.43 36.3285 881.078 33.456C879.727 30.5835 879.051 27.4576 879.051 24.0782C879.051 20.8678 879.727 17.8263 881.078 14.9538C882.43 11.9123 884.289 9.29331 886.654 7.09671C889.02 4.9001 891.808 3.2104 895.018 2.02761C898.229 0.675843 901.608 -3.78305e-05 905.157 -3.78305e-05ZM1078.82 68.6862C1081.36 70.8828 1082.88 73.5019 1083.38 76.5433C1083.89 79.4158 1083.55 82.2038 1082.37 84.9074C1081.36 87.6109 1079.67 89.9764 1077.3 92.0041C1074.94 94.0317 1072.15 95.299 1068.94 95.8059C1065.9 96.1439 1062.52 95.468 1058.8 93.7783C1055.25 91.9196 1051.7 88.5402 1048.15 83.6401C1046.63 81.6124 1045.2 79.7538 1043.85 78.0641C1042.49 76.2054 1041.14 74.6847 1039.79 73.5019C1036.41 70.7984 1032.86 69.4466 1029.15 69.4466C1025.6 69.4466 1022.56 70.3759 1020.02 72.2346C1018.33 73.4174 1017.06 74.9381 1016.22 76.7968C1015.37 78.6555 1015.21 80.6831 1015.71 82.8797C1016.22 85.0763 1017.49 87.4419 1019.51 89.9765C1021.71 92.342 1024.84 94.7921 1028.89 97.3266C1034.3 100.537 1040.47 103.748 1047.39 106.958C1054.49 110.168 1061.08 113.886 1067.16 118.11C1073.25 122.334 1078.15 127.319 1081.86 133.064C1085.58 138.809 1086.85 145.737 1085.67 153.847C1084.82 159.085 1082.96 163.816 1080.09 168.041C1077.22 172.265 1073.58 175.898 1069.19 178.939C1066.15 180.967 1062.6 182.825 1058.55 184.515C1054.49 186.205 1050.1 187.641 1045.37 188.824C1040.64 190.007 1035.57 190.936 1030.16 191.612C1024.92 192.288 1019.68 192.626 1014.45 192.626C1008.19 192.626 1002.03 192.203 995.943 191.358C989.86 190.683 984.2 189.5 978.962 187.81C973.723 185.951 969.077 183.67 965.022 180.967C961.135 178.263 958.178 175.137 956.151 171.589C953.785 167.365 952.771 163.478 953.109 159.93C953.447 156.382 954.714 153.34 956.911 150.806C959.108 148.271 961.811 146.328 965.022 144.976C968.401 143.624 971.78 143.033 975.16 143.202C978.708 143.371 982.003 144.385 985.044 146.243C988.086 147.933 990.367 150.721 991.888 154.607L992.648 157.649C994.507 163.394 997.126 167.703 1000.51 170.575C1004.05 173.279 1007.52 174.884 1010.9 175.391C1014.45 175.898 1017.66 175.475 1020.53 174.123C1023.4 172.772 1025.26 170.829 1026.1 168.294C1027.12 165.759 1026.7 162.802 1024.84 159.423C1022.98 156.044 1019.18 152.58 1013.43 149.031C1008.02 145.821 1001.77 142.611 994.676 139.4C987.748 136.19 981.243 132.472 975.16 128.248C969.077 124.024 964.092 119.039 960.206 113.294C956.489 107.549 955.306 100.622 956.658 92.511C957.502 87.2729 959.361 82.5418 962.234 78.3175C965.106 74.0933 968.739 70.4604 973.132 67.419C981.75 61.505 991.127 57.6187 1001.27 55.76C1011.57 53.7324 1021.71 53.0565 1031.68 53.7324C1035.23 54.0703 1039.11 54.5773 1043.34 55.2531C1047.56 55.929 1051.79 56.8584 1056.01 58.0411C1060.41 59.055 1064.46 60.4067 1068.18 62.0964C1072.06 63.7861 1075.36 65.7293 1078.06 67.9259L1078.82 68.6862Z" fill="#F0F0F5"/>
<path d="M278.705 242.824H271.188V220.642H278.856C281.058 220.642 282.95 221.086 284.532 221.974C286.12 222.855 287.34 224.122 288.192 225.776C289.045 227.429 289.471 229.408 289.471 231.711C289.471 234.022 289.041 236.008 288.182 237.668C287.33 239.329 286.098 240.604 284.488 241.492C282.885 242.38 280.957 242.824 278.705 242.824ZM275.206 239.347H278.51C280.055 239.347 281.344 239.066 282.376 238.502C283.409 237.932 284.185 237.083 284.705 235.957C285.225 234.823 285.485 233.408 285.485 231.711C285.485 230.014 285.225 228.606 284.705 227.487C284.185 226.361 283.416 225.52 282.398 224.964C281.387 224.4 280.131 224.119 278.629 224.119H275.206V239.347ZM314.618 242.824V226.187H318.538V242.824H314.618ZM316.589 223.826C315.968 223.826 315.434 223.621 314.986 223.209C314.538 222.79 314.314 222.288 314.314 221.703C314.314 221.111 314.538 220.61 314.986 220.198C315.434 219.779 315.968 219.57 316.589 219.57C317.217 219.57 317.751 219.779 318.192 220.198C318.64 220.61 318.863 221.111 318.863 221.703C318.863 222.288 318.64 222.79 318.192 223.209C317.751 223.621 317.217 223.826 316.589 223.826ZM351.308 249.409C349.9 249.409 348.69 249.218 347.679 248.835C346.669 248.46 345.856 247.954 345.243 247.319C344.629 246.683 344.203 245.979 343.964 245.207L347.495 244.351C347.654 244.676 347.885 244.997 348.189 245.315C348.492 245.64 348.9 245.907 349.412 246.116C349.932 246.333 350.586 246.441 351.373 246.441C352.485 246.441 353.405 246.171 354.135 245.629C354.864 245.095 355.229 244.214 355.229 242.986V239.835H355.034C354.832 240.239 354.536 240.654 354.146 241.08C353.763 241.506 353.254 241.864 352.618 242.152C351.99 242.441 351.2 242.586 350.246 242.586C348.968 242.586 347.809 242.286 346.77 241.687C345.737 241.08 344.914 240.177 344.3 238.979C343.694 237.773 343.39 236.264 343.39 234.452C343.39 232.625 343.694 231.083 344.3 229.827C344.914 228.563 345.741 227.606 346.781 226.956C347.82 226.299 348.979 225.971 350.257 225.971C351.232 225.971 352.034 226.137 352.662 226.469C353.297 226.794 353.803 227.188 354.178 227.65C354.554 228.105 354.839 228.534 355.034 228.939H355.25V226.187H359.117V243.095C359.117 244.517 358.778 245.694 358.099 246.626C357.42 247.557 356.492 248.254 355.315 248.716C354.138 249.178 352.803 249.409 351.308 249.409ZM351.34 239.51C352.171 239.51 352.878 239.307 353.463 238.903C354.048 238.499 354.492 237.917 354.795 237.159C355.099 236.401 355.25 235.491 355.25 234.43C355.25 233.383 355.099 232.466 354.795 231.679C354.499 230.892 354.059 230.282 353.474 229.848C352.896 229.408 352.185 229.188 351.34 229.188C350.467 229.188 349.737 229.415 349.153 229.87C348.568 230.325 348.127 230.95 347.831 231.744C347.535 232.531 347.387 233.426 347.387 234.43C347.387 235.448 347.535 236.34 347.831 237.105C348.134 237.863 348.578 238.455 349.163 238.881C349.755 239.3 350.481 239.51 351.34 239.51ZM384.638 242.824V226.187H388.559V242.824H384.638ZM386.609 223.826C385.988 223.826 385.454 223.621 385.006 223.209C384.558 222.79 384.335 222.288 384.335 221.703C384.335 221.111 384.558 220.61 385.006 220.198C385.454 219.779 385.988 219.57 386.609 219.57C387.237 219.57 387.772 219.779 388.212 220.198C388.66 220.61 388.884 221.111 388.884 221.703C388.884 222.288 388.66 222.79 388.212 223.209C387.772 223.621 387.237 223.826 386.609 223.826ZM422.4 226.187V229.22H412.837V226.187H422.4ZM415.198 222.202H419.118V237.82C419.118 238.347 419.198 238.751 419.357 239.033C419.523 239.307 419.739 239.495 420.007 239.596C420.274 239.697 420.57 239.748 420.895 239.748C421.14 239.748 421.364 239.73 421.566 239.694C421.776 239.658 421.935 239.625 422.043 239.596L422.704 242.661C422.494 242.734 422.194 242.813 421.805 242.9C421.422 242.986 420.953 243.037 420.397 243.051C419.415 243.08 418.53 242.932 417.743 242.607C416.956 242.275 416.331 241.762 415.869 241.069C415.414 240.376 415.19 239.51 415.198 238.47V222.202ZM451.969 243.16C450.915 243.16 449.965 242.972 449.121 242.596C448.283 242.214 447.619 241.65 447.128 240.907C446.644 240.163 446.402 239.246 446.402 238.156C446.402 237.217 446.575 236.441 446.922 235.827C447.268 235.213 447.741 234.722 448.341 234.354C448.94 233.986 449.615 233.708 450.366 233.52C451.124 233.325 451.908 233.184 452.716 233.098C453.691 232.997 454.482 232.906 455.088 232.827C455.695 232.74 456.135 232.61 456.41 232.437C456.691 232.256 456.832 231.978 456.832 231.603V231.538C456.832 230.722 456.59 230.09 456.107 229.643C455.623 229.195 454.926 228.971 454.016 228.971C453.056 228.971 452.294 229.18 451.731 229.599C451.175 230.018 450.799 230.513 450.604 231.083L446.944 230.563C447.232 229.552 447.709 228.707 448.373 228.029C449.038 227.343 449.85 226.83 450.81 226.491C451.771 226.144 452.832 225.971 453.995 225.971C454.796 225.971 455.594 226.065 456.388 226.252C457.182 226.44 457.908 226.751 458.565 227.184C459.222 227.61 459.749 228.191 460.147 228.928C460.551 229.664 460.753 230.585 460.753 231.69V242.824H456.984V240.539H456.854C456.616 241.001 456.28 241.434 455.847 241.838C455.421 242.235 454.883 242.557 454.233 242.802C453.59 243.04 452.836 243.16 451.969 243.16ZM452.987 240.279C453.774 240.279 454.457 240.123 455.034 239.813C455.612 239.495 456.056 239.076 456.367 238.556C456.684 238.037 456.843 237.47 456.843 236.856V234.896C456.72 234.997 456.511 235.091 456.215 235.177C455.926 235.264 455.601 235.34 455.24 235.405C454.879 235.47 454.522 235.527 454.168 235.578C453.814 235.628 453.507 235.672 453.247 235.708C452.662 235.787 452.139 235.917 451.677 236.098C451.215 236.278 450.85 236.531 450.583 236.856C450.316 237.174 450.182 237.585 450.182 238.091C450.182 238.813 450.446 239.358 450.973 239.726C451.5 240.094 452.171 240.279 452.987 240.279ZM490.119 220.642V242.824H486.198V220.642H490.119ZM556.949 226.74C556.848 225.794 556.422 225.057 555.671 224.53C554.927 224.003 553.96 223.74 552.769 223.74C551.931 223.74 551.212 223.866 550.613 224.119C550.014 224.371 549.555 224.714 549.238 225.148C548.92 225.581 548.757 226.076 548.75 226.632C548.75 227.094 548.855 227.494 549.064 227.834C549.281 228.173 549.573 228.462 549.942 228.7C550.31 228.931 550.718 229.126 551.166 229.285C551.613 229.444 552.064 229.578 552.519 229.686L554.599 230.206C555.437 230.401 556.242 230.664 557.014 230.996C557.794 231.329 558.491 231.747 559.105 232.253C559.726 232.758 560.217 233.368 560.578 234.083C560.939 234.798 561.119 235.636 561.119 236.596C561.119 237.896 560.787 239.04 560.123 240.029C559.458 241.011 558.498 241.78 557.242 242.336C555.993 242.885 554.48 243.16 552.704 243.16C550.978 243.16 549.48 242.892 548.209 242.358C546.945 241.824 545.956 241.044 545.241 240.019C544.533 238.993 544.151 237.744 544.093 236.271H548.046C548.104 237.044 548.342 237.686 548.761 238.199C549.18 238.712 549.725 239.094 550.397 239.347C551.075 239.6 551.833 239.726 552.671 239.726C553.545 239.726 554.31 239.596 554.967 239.336C555.631 239.069 556.151 238.701 556.527 238.232C556.902 237.755 557.094 237.199 557.101 236.564C557.094 235.986 556.924 235.509 556.592 235.134C556.26 234.751 555.794 234.433 555.195 234.181C554.603 233.921 553.909 233.69 553.115 233.488L550.591 232.838C548.765 232.368 547.321 231.657 546.259 230.704C545.205 229.744 544.678 228.469 544.678 226.881C544.678 225.574 545.032 224.429 545.739 223.447C546.454 222.465 547.425 221.703 548.653 221.162C549.88 220.613 551.27 220.339 552.823 220.339C554.397 220.339 555.776 220.613 556.96 221.162C558.152 221.703 559.087 222.458 559.765 223.426C560.444 224.386 560.794 225.491 560.816 226.74H556.949ZM593.287 243.149C591.663 243.149 590.255 242.791 589.063 242.077C587.872 241.362 586.948 240.362 586.291 239.076C585.641 237.791 585.316 236.289 585.316 234.571C585.316 232.852 585.641 231.347 586.291 230.054C586.948 228.762 587.872 227.758 589.063 227.043C590.255 226.328 591.663 225.971 593.287 225.971C594.912 225.971 596.32 226.328 597.512 227.043C598.703 227.758 599.624 228.762 600.273 230.054C600.931 231.347 601.259 232.852 601.259 234.571C601.259 236.289 600.931 237.791 600.273 239.076C599.624 240.362 598.703 241.362 597.512 242.077C596.32 242.791 594.912 243.149 593.287 243.149ZM593.309 240.008C594.19 240.008 594.927 239.766 595.519 239.282C596.111 238.791 596.551 238.134 596.84 237.311C597.136 236.488 597.284 235.571 597.284 234.56C597.284 233.542 597.136 232.621 596.84 231.798C596.551 230.968 596.111 230.307 595.519 229.816C594.927 229.325 594.19 229.079 593.309 229.079C592.407 229.079 591.656 229.325 591.056 229.816C590.464 230.307 590.02 230.968 589.724 231.798C589.435 232.621 589.291 233.542 589.291 234.56C589.291 235.571 589.435 236.488 589.724 237.311C590.02 238.134 590.464 238.791 591.056 239.282C591.656 239.766 592.407 240.008 593.309 240.008ZM630.01 220.642V242.824H626.089V220.642H630.01ZM666.148 235.827V226.187H670.069V242.824H666.267V239.867H666.094C665.718 240.798 665.101 241.56 664.242 242.152C663.39 242.744 662.339 243.04 661.09 243.04C660 243.04 659.036 242.799 658.198 242.315C657.368 241.824 656.718 241.113 656.249 240.181C655.779 239.242 655.544 238.109 655.544 236.78V226.187H659.465V236.174C659.465 237.228 659.754 238.065 660.332 238.686C660.909 239.307 661.668 239.618 662.606 239.618C663.184 239.618 663.744 239.477 664.285 239.195C664.827 238.914 665.271 238.495 665.617 237.939C665.971 237.376 666.148 236.672 666.148 235.827ZM703.911 226.187V229.22H694.347V226.187H703.911ZM696.708 222.202H700.629V237.82C700.629 238.347 700.708 238.751 700.867 239.033C701.033 239.307 701.25 239.495 701.517 239.596C701.784 239.697 702.08 239.748 702.405 239.748C702.651 239.748 702.874 239.73 703.077 239.694C703.286 239.658 703.445 239.625 703.553 239.596L704.214 242.661C704.004 242.734 703.705 242.813 703.315 242.9C702.932 242.986 702.463 243.037 701.907 243.051C700.925 243.08 700.04 242.932 699.253 242.607C698.466 242.275 697.842 241.762 697.379 241.069C696.925 240.376 696.701 239.51 696.708 238.47V222.202ZM728.692 242.824V226.187H732.613V242.824H728.692ZM730.663 223.826C730.042 223.826 729.508 223.621 729.06 223.209C728.613 222.79 728.389 222.288 728.389 221.703C728.389 221.111 728.613 220.61 729.06 220.198C729.508 219.779 730.042 219.57 730.663 219.57C731.292 219.57 731.826 219.779 732.266 220.198C732.714 220.61 732.938 221.111 732.938 221.703C732.938 222.288 732.714 222.79 732.266 223.209C731.826 223.621 731.292 223.826 730.663 223.826ZM765.404 243.149C763.779 243.149 762.371 242.791 761.18 242.077C759.988 241.362 759.064 240.362 758.407 239.076C757.757 237.791 757.432 236.289 757.432 234.571C757.432 232.852 757.757 231.347 758.407 230.054C759.064 228.762 759.988 227.758 761.18 227.043C762.371 226.328 763.779 225.971 765.404 225.971C767.029 225.971 768.437 226.328 769.628 227.043C770.819 227.758 771.74 228.762 772.39 230.054C773.047 231.347 773.376 232.852 773.376 234.571C773.376 236.289 773.047 237.791 772.39 239.076C771.74 240.362 770.819 241.362 769.628 242.077C768.437 242.791 767.029 243.149 765.404 243.149ZM765.426 240.008C766.307 240.008 767.043 239.766 767.635 239.282C768.227 238.791 768.668 238.134 768.957 237.311C769.253 236.488 769.401 235.571 769.401 234.56C769.401 233.542 769.253 232.621 768.957 231.798C768.668 230.968 768.227 230.307 767.635 229.816C767.043 229.325 766.307 229.079 765.426 229.079C764.523 229.079 763.772 229.325 763.173 229.816C762.581 230.307 762.137 230.968 761.841 231.798C761.552 232.621 761.407 233.542 761.407 234.56C761.407 235.571 761.552 236.488 761.841 237.311C762.137 238.134 762.581 238.791 763.173 239.282C763.772 239.766 764.523 240.008 765.426 240.008ZM802.127 233.076V242.824H798.206V226.187H801.953V229.014H802.148C802.531 228.083 803.141 227.343 803.979 226.794C804.824 226.245 805.867 225.971 807.109 225.971C808.257 225.971 809.257 226.216 810.109 226.707C810.968 227.198 811.633 227.91 812.102 228.841C812.579 229.773 812.813 230.903 812.806 232.231V242.824H808.885V232.838C808.885 231.726 808.596 230.856 808.019 230.227C807.448 229.599 806.658 229.285 805.647 229.285C804.961 229.285 804.351 229.437 803.816 229.74C803.289 230.036 802.874 230.466 802.571 231.029C802.275 231.592 802.127 232.274 802.127 233.076ZM851.443 230.585L847.869 230.975C847.768 230.614 847.591 230.274 847.338 229.957C847.093 229.639 846.761 229.383 846.342 229.188C845.923 228.993 845.41 228.895 844.804 228.895C843.988 228.895 843.302 229.072 842.746 229.426C842.197 229.78 841.926 230.238 841.934 230.801C841.926 231.285 842.103 231.679 842.464 231.982C842.833 232.285 843.439 232.534 844.284 232.729L847.122 233.336C848.696 233.675 849.865 234.213 850.631 234.95C851.403 235.686 851.793 236.65 851.801 237.842C851.793 238.889 851.486 239.813 850.88 240.614C850.281 241.409 849.447 242.03 848.378 242.477C847.309 242.925 846.082 243.149 844.695 243.149C842.659 243.149 841.02 242.723 839.778 241.871C838.536 241.011 837.796 239.816 837.558 238.286L841.381 237.917C841.554 238.668 841.923 239.235 842.486 239.618C843.049 240.001 843.782 240.192 844.685 240.192C845.616 240.192 846.363 240.001 846.927 239.618C847.497 239.235 847.782 238.762 847.782 238.199C847.782 237.722 847.598 237.329 847.23 237.018C846.869 236.708 846.306 236.47 845.54 236.304L842.703 235.708C841.107 235.376 839.926 234.816 839.161 234.029C838.395 233.235 838.016 232.231 838.024 231.018C838.016 229.993 838.294 229.105 838.858 228.354C839.428 227.596 840.219 227.011 841.23 226.599C842.248 226.18 843.421 225.971 844.75 225.971C846.699 225.971 848.234 226.386 849.353 227.216C850.479 228.047 851.176 229.17 851.443 230.585Z" fill="#F0F0F5"/>
</svg>
