<svg width="1123" height="243" viewBox="0 0 1123 243" fill="none" xmlns="http://www.w3.org/2000/svg">
<path d="M195.414 178.179C196.428 180.713 196.259 183.248 194.907 185.782C193.555 188.148 191.527 189.331 188.824 189.331H131.543C129.515 189.331 127.741 188.57 126.221 187.05C124.869 185.529 124.193 183.67 124.193 181.474V163.225L85.9212 75.5295L82.6263 67.9259C82.1194 66.7431 81.19 66.1517 79.8383 66.1517C78.6555 65.9827 77.6417 66.5741 76.7968 67.9259L73.2485 75.2761L63.6172 94.7921C61.0826 100.03 60.9981 105.437 63.3637 111.013L92.7645 178.179C93.7783 180.713 93.6093 183.248 92.2576 185.782C90.9058 188.148 88.8782 189.331 86.1747 189.331H28.8939C20.9523 189.331 14.8694 185.613 10.6451 178.179C6.42086 171.082 5.91395 163.563 9.12438 155.621V154.861L14.4469 143.962L62.3499 46.1288L64.3775 41.5666L66.4052 36.7509C67.419 34.3853 67.419 32.0198 66.4052 29.6542L63.3637 23.3178C62.012 20.7833 62.012 18.1642 63.3637 15.4607C64.7155 12.7572 66.7431 11.4054 69.4466 11.4054H131.797C134.5 11.4054 136.528 12.7572 137.879 15.4607C139.231 18.1642 139.231 20.7833 137.879 23.3178L134.838 29.6542C133.824 32.0198 133.824 34.3853 134.838 36.7509L136.866 41.5666L195.16 177.418L195.414 178.179ZM290.657 87.1884C289.812 85.1608 288.376 83.809 286.349 83.1332C284.321 82.4573 282.293 82.5418 280.266 83.3866C278.576 84.2315 277.055 85.4987 275.703 87.1884C274.521 88.7092 273.507 90.4834 272.662 92.511C271.817 94.5386 271.141 96.5663 270.634 98.5939C270.296 100.453 270.127 102.058 270.127 103.41V160.944C270.127 161.789 270.381 162.971 270.888 164.492C271.564 166.013 272.24 167.618 272.915 169.308C273.76 170.829 274.605 172.434 275.45 174.123C276.295 175.644 276.971 176.911 277.478 177.925C278.829 180.46 278.829 182.994 277.478 185.529C276.126 188.063 274.098 189.331 271.395 189.331H217.155C214.452 189.331 212.424 188.063 211.072 185.529C209.721 182.994 209.721 180.46 211.072 177.925C211.579 176.911 212.255 175.644 213.1 174.123C213.945 172.434 214.705 170.829 215.381 169.308C216.226 167.618 216.902 166.013 217.409 164.492C218.085 162.971 218.423 161.789 218.423 160.944V84.9074C218.423 84.0625 218.085 82.8797 217.409 81.359C216.902 79.8383 216.226 78.3175 215.381 76.7968C214.705 75.1071 213.945 73.5019 213.1 71.9812C212.255 70.2915 211.579 68.9397 211.072 67.9259C209.721 65.3913 209.721 62.8568 211.072 60.3222C212.424 57.7877 214.452 56.5204 217.155 56.5204H260.75C263.453 56.6894 265.734 57.7032 267.593 59.5619C269.452 61.4205 270.381 63.7016 270.381 66.4052C275.788 63.0258 281.786 60.0688 288.376 57.5342C294.966 54.9997 301.471 53.9014 307.892 54.2393C310.934 54.4083 313.891 55.1686 316.763 56.5204C319.805 57.7032 322.424 59.3084 324.62 61.3361C326.986 63.3637 328.845 65.8138 330.196 68.6862C331.548 71.3898 332.224 74.4312 332.224 77.8106C332.224 83.7246 330.45 88.4557 326.901 92.0041C323.522 95.5525 319.551 97.8335 314.989 98.8474C310.427 99.8612 305.78 99.4388 301.049 97.5801C296.487 95.5525 293.023 91.8351 290.657 86.4281V86.6815V87.1884ZM448.841 179.193C448.841 181.558 447.743 183.248 445.546 184.262C438.28 187.641 431.099 189.838 424.002 190.851C417.075 192.034 410.569 192.626 404.486 192.626C397.727 192.626 391.814 191.781 386.744 190.091C381.844 188.57 377.705 185.951 374.325 182.234C371.115 178.517 368.665 173.617 366.975 167.534C365.454 161.282 364.694 153.678 364.694 144.723V100.622V80.8521C364.694 79.3313 364.102 78.0641 362.92 77.0503C361.906 75.8675 360.639 75.2761 359.118 75.2761H352.275C350.754 75.2761 349.402 74.7692 348.219 73.7553C347.205 72.5725 346.699 71.2208 346.699 69.7001V62.0964C346.699 60.5757 347.205 59.3084 348.219 58.2946C349.233 57.1118 350.5 56.4359 352.021 56.267C356.583 55.929 361.145 54.7462 365.708 52.7186C370.439 50.6909 374.832 48.0719 378.887 44.8615C383.112 41.6511 386.829 38.0182 390.039 33.9629C393.419 29.7387 396.038 25.3455 397.896 20.7833C398.741 18.5867 400.431 17.4883 402.966 17.4883H410.823C412.343 17.4883 413.611 18.0797 414.624 19.2625C415.807 20.2764 416.399 21.5436 416.399 23.0644V50.9444C416.399 52.4651 416.906 53.8169 417.919 54.9997C419.102 56.0135 420.454 56.5204 421.975 56.5204H443.011C444.532 56.5204 445.799 57.1118 446.813 58.2946C447.996 59.3084 448.587 60.5757 448.587 62.0964V69.4466C448.587 70.9673 447.996 72.3191 446.813 73.5019C445.799 74.5157 444.532 75.0226 443.011 75.0226H421.975C420.454 75.0226 419.102 75.614 417.919 76.7968C416.906 77.8106 416.399 79.0779 416.399 80.5986V146.497C416.399 151.566 418.173 155.959 421.721 159.677C425.439 163.225 429.832 164.999 434.901 164.999C437.266 164.999 439.21 164.661 440.73 163.985C442.589 163.478 444.279 163.732 445.799 164.746C447.32 165.759 448.081 167.196 448.081 169.054V178.686L448.841 179.193ZM516.515 55.2531C526.147 53.0565 536.116 52.8031 546.423 54.4928C556.73 56.0135 566.108 59.4774 574.556 64.8844C583.174 70.1225 590.271 77.3882 595.847 86.6815C601.592 95.8059 604.633 106.873 604.971 119.884V123.686C604.971 125.545 604.295 127.15 602.943 128.502C601.592 129.853 599.986 130.529 598.128 130.529H520.571C518.881 130.529 517.529 131.205 516.515 132.557C515.501 133.909 515.079 135.345 515.248 136.866C516.262 144.469 519.81 150.637 525.893 155.368C533.328 161.113 541.523 162.971 550.478 160.944L590.271 152.326C592.805 151.819 594.748 152.664 596.1 154.861C597.452 157.058 597.452 159.254 596.1 161.451C592.721 166.858 588.75 171.504 584.188 175.391C579.626 179.108 574.641 182.15 569.234 184.515C563.996 186.881 558.335 188.655 552.252 189.838C546.338 191.02 540.34 191.612 534.257 191.612H534.004H533.243H528.681H528.428H527.667C519.388 190.936 511.277 189.077 503.336 186.036C495.563 182.825 488.635 178.348 482.552 172.603C476.469 166.858 471.569 159.846 467.852 151.566C464.135 143.286 462.276 133.74 462.276 122.926C462.276 113.294 463.797 104.677 466.838 97.0732C469.88 89.4695 473.85 82.8797 478.751 77.3037C483.82 71.7277 489.565 67.1655 495.985 63.6171C502.575 59.8998 509.419 57.2808 516.515 55.76V55.2531ZM545.663 114.055C547.521 114.055 549.126 113.379 550.478 112.027C551.83 110.675 552.506 109.07 552.506 107.211V92.511C552.506 87.2729 550.647 82.7952 546.93 79.0779C543.381 75.3606 538.988 73.5019 533.75 73.5019C528.512 73.5019 524.034 75.3606 520.317 79.0779C516.769 82.7952 514.995 87.2729 514.995 92.511V107.211C514.995 109.07 515.67 110.675 517.022 112.027C518.374 113.379 519.979 114.055 521.838 114.055H545.663ZM678.762 67.419C687.379 62.0119 695.152 58.4636 702.08 56.7739C709.008 55.0842 716.104 54.2393 723.37 54.2393C730.805 54.2393 737.31 55.5066 742.886 58.0411C748.631 60.5757 753.193 64.9689 756.573 71.2208C758.6 69.7001 761.05 68.0104 763.923 66.1517C766.964 64.1241 770.513 62.2654 774.568 60.5757C778.792 58.717 783.608 57.1963 789.015 56.0135C794.422 54.8307 800.674 54.2393 807.771 54.2393C813.685 54.2393 819.007 55.0842 823.738 56.7739C828.638 58.2946 832.778 60.9136 836.158 64.631C839.706 68.3483 842.409 73.3329 844.268 79.5848C846.296 85.6677 847.31 93.1869 847.31 102.142C847.31 104.677 847.31 107.972 847.31 112.027C847.31 115.913 847.31 119.969 847.31 124.193C847.478 128.248 847.563 132.303 847.563 136.359C847.563 140.245 847.563 143.54 847.563 146.243V161.704C847.563 163.056 847.816 164.323 848.323 165.506L854.913 178.686C856.265 181.22 856.265 183.755 854.913 186.289C853.561 188.824 851.534 190.091 848.83 190.091H794.591C791.887 190.091 789.86 188.824 788.508 186.289C787.156 183.755 787.156 181.22 788.508 178.686C789.353 176.996 789.944 175.813 790.282 175.137C790.789 174.292 791.212 173.532 791.549 172.856C791.887 172.18 792.31 171.335 792.817 170.322C793.324 169.308 794.084 167.787 795.098 165.759C795.605 164.577 795.858 163.309 795.858 161.958C795.858 150.975 795.858 140.076 795.858 129.262C795.858 118.448 795.774 107.549 795.605 96.5663C795.605 93.1869 794.675 90.1454 792.817 87.4419C791.634 85.7522 790.451 84.4849 789.268 83.6401C786.227 81.4435 783.016 80.3452 779.637 80.3452C775.413 80.3452 771.695 81.7814 768.485 84.6539C765.444 87.5264 763.754 90.9903 763.416 95.0456V133.064V145.99V161.451C763.416 162.802 763.669 164.07 764.176 165.253L770.766 178.432C772.118 180.967 772.118 183.501 770.766 186.036C769.414 188.57 767.387 189.838 764.683 189.838H710.19C707.487 189.838 705.459 188.57 704.108 186.036C702.756 183.501 702.756 180.967 704.108 178.432L710.697 165.253C711.204 164.07 711.458 162.802 711.458 161.451V119.377V95.8059C711.458 92.4265 710.528 89.3851 708.67 86.6815C707.487 84.9918 706.304 83.7246 705.121 82.8797C702.08 80.6831 698.869 79.5848 695.49 79.5848C691.266 79.5848 687.548 81.021 684.338 83.8935C681.297 86.766 679.607 90.2299 679.269 94.2852V160.944C679.269 162.296 679.522 163.563 680.029 164.746C681.212 167.111 682.057 168.801 682.564 169.815C683.071 170.66 683.409 171.42 683.578 172.096C683.916 172.603 684.254 173.194 684.591 173.87C684.929 174.546 685.605 175.898 686.619 177.925C687.971 180.46 687.971 182.994 686.619 185.529C685.267 188.063 683.24 189.331 680.536 189.331H626.297C623.593 189.331 621.566 188.063 620.214 185.529C618.862 182.994 618.862 180.46 620.214 177.925L626.804 164.746C627.311 163.563 627.564 162.296 627.564 160.944V84.9074C627.564 83.7246 627.311 82.4573 626.804 81.1055L620.214 67.9259C619.707 66.7431 619.454 65.4758 619.454 64.1241C619.454 62.0964 620.045 60.3222 621.228 58.8015C622.58 57.2808 624.269 56.5204 626.297 56.5204H669.638C672.341 56.5204 674.622 57.4497 676.481 59.3084C678.34 61.1671 679.269 63.4482 679.269 66.1517L678.762 67.419ZM878.037 160.69V84.6539C878.037 83.4711 877.784 82.2038 877.277 80.8521L870.687 67.6724C869.335 65.1379 869.335 62.6033 870.687 60.0688C872.039 57.5342 874.066 56.267 876.77 56.267H920.11C922.814 56.267 925.095 57.1963 926.954 59.055C928.812 60.9136 929.742 63.1947 929.742 65.8982V160.437C929.742 161.789 929.995 163.056 930.502 164.239L937.092 177.418C938.444 179.953 938.444 182.487 937.092 185.022C935.74 187.557 933.713 188.824 931.009 188.824H876.77C874.066 188.824 872.039 187.557 870.687 185.022C869.335 182.487 869.335 179.953 870.687 177.418L877.277 164.239C877.784 163.056 878.037 161.789 878.037 160.437V160.69ZM905.157 -3.78305e-05C908.705 -3.78305e-05 912.084 0.675843 915.295 2.02761C918.505 3.2104 921.293 4.9001 923.659 7.09671C926.024 9.29331 927.883 11.9123 929.235 14.9538C930.587 17.8263 931.262 20.8678 931.262 24.0782C931.262 27.4576 930.587 30.5835 929.235 33.456C927.883 36.3285 926.024 38.8631 923.659 41.0597C921.293 43.2563 918.505 45.0304 915.295 46.3822C912.084 47.565 908.705 48.1564 905.157 48.1564C901.608 48.1564 898.229 47.565 895.018 46.3822C891.808 45.0304 889.02 43.2563 886.654 41.0597C884.289 38.8631 882.43 36.3285 881.078 33.456C879.727 30.5835 879.051 27.4576 879.051 24.0782C879.051 20.8678 879.727 17.8263 881.078 14.9538C882.43 11.9123 884.289 9.29331 886.654 7.09671C889.02 4.9001 891.808 3.2104 895.018 2.02761C898.229 0.675843 901.608 -3.78305e-05 905.157 -3.78305e-05ZM1078.82 68.6862C1081.36 70.8828 1082.88 73.5019 1083.38 76.5433C1083.89 79.4158 1083.55 82.2038 1082.37 84.9074C1081.36 87.6109 1079.67 89.9764 1077.3 92.0041C1074.94 94.0317 1072.15 95.299 1068.94 95.8059C1065.9 96.1439 1062.52 95.468 1058.8 93.7783C1055.25 91.9196 1051.7 88.5402 1048.15 83.6401C1046.63 81.6124 1045.2 79.7538 1043.85 78.0641C1042.49 76.2054 1041.14 74.6847 1039.79 73.5019C1036.41 70.7984 1032.86 69.4466 1029.15 69.4466C1025.6 69.4466 1022.56 70.3759 1020.02 72.2346C1018.33 73.4174 1017.06 74.9381 1016.22 76.7968C1015.37 78.6555 1015.21 80.6831 1015.71 82.8797C1016.22 85.0763 1017.49 87.4419 1019.51 89.9765C1021.71 92.342 1024.84 94.7921 1028.89 97.3266C1034.3 100.537 1040.47 103.748 1047.39 106.958C1054.49 110.168 1061.08 113.886 1067.16 118.11C1073.25 122.334 1078.15 127.319 1081.86 133.064C1085.58 138.809 1086.85 145.737 1085.67 153.847C1084.82 159.085 1082.96 163.816 1080.09 168.041C1077.22 172.265 1073.58 175.898 1069.19 178.939C1066.15 180.967 1062.6 182.825 1058.55 184.515C1054.49 186.205 1050.1 187.641 1045.37 188.824C1040.64 190.007 1035.57 190.936 1030.16 191.612C1024.92 192.288 1019.68 192.626 1014.45 192.626C1008.19 192.626 1002.03 192.203 995.943 191.358C989.86 190.683 984.2 189.5 978.962 187.81C973.723 185.951 969.077 183.67 965.022 180.967C961.135 178.263 958.178 175.137 956.151 171.589C953.785 167.365 952.771 163.478 953.109 159.93C953.447 156.382 954.714 153.34 956.911 150.806C959.108 148.271 961.811 146.328 965.022 144.976C968.401 143.624 971.78 143.033 975.16 143.202C978.708 143.371 982.003 144.385 985.044 146.243C988.086 147.933 990.367 150.721 991.888 154.607L992.648 157.649C994.507 163.394 997.126 167.703 1000.51 170.575C1004.05 173.279 1007.52 174.884 1010.9 175.391C1014.45 175.898 1017.66 175.475 1020.53 174.123C1023.4 172.772 1025.26 170.829 1026.1 168.294C1027.12 165.759 1026.7 162.802 1024.84 159.423C1022.98 156.044 1019.18 152.58 1013.43 149.031C1008.02 145.821 1001.77 142.611 994.676 139.4C987.748 136.19 981.243 132.472 975.16 128.248C969.077 124.024 964.092 119.039 960.206 113.294C956.489 107.549 955.306 100.622 956.658 92.511C957.502 87.2729 959.361 82.5418 962.234 78.3175C965.106 74.0933 968.739 70.4604 973.132 67.419C981.75 61.505 991.127 57.6187 1001.27 55.76C1011.57 53.7324 1021.71 53.0565 1031.68 53.7324C1035.23 54.0703 1039.11 54.5773 1043.34 55.2531C1047.56 55.929 1051.79 56.8584 1056.01 58.0411C1060.41 59.055 1064.46 60.4067 1068.18 62.0964C1072.06 63.7861 1075.36 65.7293 1078.06 67.9259L1078.82 68.6862Z" fill="#F0F0F5"/>
</svg>
